G04*
G04 #@! TF.GenerationSoftware,Altium Limited,Altium Designer,20.2.7 (254)*
G04*
G04 Layer_Color=2752767*
%FSLAX23Y23*%
%MOIN*%
G70*
G04*
G04 #@! TF.SameCoordinates,66DE7B0B-367C-45AC-96F2-8558094BDFBB*
G04*
G04*
G04 #@! TF.FilePolarity,Positive*
G04*
G01*
G75*
%ADD35C,0.002*%
%ADD36C,0.003*%
D35*
X5296Y1105D02*
Y1121D01*
X5312D01*
Y1105D01*
X5296D01*
X5307Y1542D02*
Y1558D01*
X5323D01*
Y1542D01*
X5307D01*
X6835Y1167D02*
X6827Y1183D01*
X6843D01*
X6835Y1167D01*
Y1267D02*
X6827Y1283D01*
X6843D01*
X6835Y1267D01*
Y1367D02*
X6827Y1383D01*
X6843D01*
X6835Y1367D01*
Y1467D02*
X6827Y1483D01*
X6843D01*
X6835Y1467D01*
Y1567D02*
X6827Y1583D01*
X6843D01*
X6835Y1567D01*
X5845Y1497D02*
X5849Y1501D01*
X5853D01*
X5849Y1505D01*
X5853Y1509D01*
X5849D01*
X5845Y1513D01*
X5841Y1509D01*
X5837D01*
X5841Y1505D01*
X5837Y1501D01*
X5841D01*
X5845Y1497D01*
Y1197D02*
X5849Y1201D01*
X5853D01*
X5849Y1205D01*
X5853Y1209D01*
X5849D01*
X5845Y1213D01*
X5841Y1209D01*
X5837D01*
X5841Y1205D01*
X5837Y1201D01*
X5841D01*
X5845Y1197D01*
X5687Y1432D02*
X5691Y1440D01*
X5687Y1448D01*
X5695Y1444D01*
X5703Y1448D01*
X5699Y1440D01*
X5703Y1432D01*
X5695Y1436D01*
X5687Y1432D01*
X5372Y1463D02*
X5376Y1471D01*
X5372Y1479D01*
X5380Y1475D01*
X5388Y1479D01*
X5384Y1471D01*
X5388Y1463D01*
X5380Y1467D01*
X5372Y1463D01*
D36*
X6223Y1595D02*
G03*
X6223Y1595I-8J0D01*
G01*
X6173D02*
G03*
X6173Y1595I-8J0D01*
G01*
M02*
